<?xml version="1.0" standalone="no"?>
<!DOCTYPE svg PUBLIC "-//W3C//DTD SVG 20010904//EN"
 "http://www.w3.org/TR/2001/REC-SVG-20010904/DTD/svg10.dtd">
<svg version="1.0" xmlns="http://www.w3.org/2000/svg"
 width="200.000000pt" height="200.000000pt" viewBox="0 0 200.000000 200.000000"
 preserveAspectRatio="xMidYMid meet">
<metadata>
Created by potrace 1.11, written by Peter Selinger 2001-2013
</metadata>
<g transform="translate(0.000000,200.000000) scale(0.100000,-0.100000)"
fill="#000000" stroke="none">
<path d="M0 1000 l0 -1000 1000 0 1000 0 0 1000 0 1000 -1000 0 -1000 0 0
-1000z m1818 603 l3 -123 -533 0 c-578 0 -627 -4 -675 -52 -52 -53 -49 -155 7
-201 39 -33 136 -49 265 -45 l100 3 3 118 3 118 147 -3 147 -3 3 -117 3 -118
167 -2 167 -3 3 -122 3 -123 -170 0 -171 0 0 -300 0 -301 -150 3 -150 3 -1
303 0 304 -162 -4 c-149 -3 -166 -5 -211 -28 -63 -32 -88 -65 -93 -127 -6 -57
20 -120 60 -146 43 -28 131 -47 228 -50 l94 -2 0 -125 0 -125 -135 2 c-369 5
-560 151 -560 428 1 132 63 246 163 296 23 12 43 23 45 24 2 2 -19 24 -46 49
-67 62 -95 129 -95 221 1 203 142 330 404 364 35 5 305 8 599 7 l535 -1 3
-122z"/>
</g>
</svg>
